# This file uses centimeters as units for non-parametric coordinates.

mtllib dst_waterfall.mtl
g default
v 0.500000 0.000000 0.500000
v -0.500000 0.000000 0.819999
v -0.500000 -0.012297 0.882429
v -0.500000 -0.048717 0.942458
v -0.500000 -0.107859 0.997782
v -0.500000 -0.187451 1.046274
v -0.500000 -0.284435 1.086070
v -0.500000 -0.395082 1.115641
v -0.500000 -0.515142 1.133851
v -0.500000 -0.640000 1.140000
v 0.500000 0.000000 0.820000
v 0.500000 -0.012297 0.882429
v 0.500000 -0.048717 0.942458
v 0.500000 -0.107859 0.997782
v 0.500000 -0.187451 1.046274
v 0.500000 -0.284435 1.086070
v 0.500000 -0.395082 1.115641
v 0.500000 -0.515142 1.133851
v 0.500000 -0.640000 1.140000
v -0.500000 -1.640000 1.140000
v 0.500000 -1.640000 1.140000
v -0.500000 -2.639999 1.140000
v 0.500000 -2.639999 1.140000
v -0.500000 0.000000 0.500000
vt 1.000000 0.874998
vt 2.000000 0.874998
vt 2.000000 1.000000
vt 1.000000 1.000000
vt 1.000000 0.749999
vt 2.000000 0.749999
vt 1.000000 0.625000
vt 2.000000 0.625000
vt 1.000000 0.499998
vt 2.000000 0.499998
vt 1.000000 0.375000
vt 2.000000 0.375000
vt 1.000000 0.249999
vt 2.000000 0.249999
vt 1.000000 0.124999
vt 2.000000 0.124998
vt 1.000000 -0.000310
vt 2.000000 -0.000000
vt 2.000000 -1.000000
vt 1.000000 -1.000000
vt 2.000000 -2.000000
vt 1.000000 -2.000000
vt 1.999950 1.399810
vt 1.000050 1.399810
vn 0.000000 0.929172 0.369647
vn -0.000000 0.929172 0.369647
vn -0.000000 0.999483 0.032139
vn 0.000000 0.999483 0.032139
vn 0.000000 0.770077 0.637951
vn 0.000000 0.770077 0.637951
vn 0.000000 0.599131 0.800651
vn 0.000000 0.599131 0.800651
vn 0.000000 0.447214 0.894427
vn 0.000000 0.447214 0.894427
vn 0.000000 0.316873 0.948468
vn 0.000000 0.316873 0.948468
vn 0.000000 0.202803 0.979219
vn 0.000000 0.202803 0.979220
vn 0.000000 0.098968 0.995091
vn 0.000000 0.098968 0.995091
vn 0.000000 0.005466 0.999985
vn 0.000000 0.005466 0.999985
vn 0.000000 0.000000 1.000000
vn 0.000000 0.000000 1.000000
vn 0.000000 0.000000 1.000000
vn 0.000000 0.000000 1.000000
vn 0.000000 1.000000 -0.000000
vn 0.000000 1.000000 -0.000000
s 1
g dst_waterfall
usemtl blinn1SG
f 3/1/1 12/2/2 2/4/3
f 2/4/3 12/2/2 11/3/4
f 4/5/5 13/6/6 3/1/1
f 3/1/1 13/6/6 12/2/2
f 5/7/7 14/8/8 4/5/5
f 4/5/5 14/8/8 13/6/6
f 6/9/9 15/10/10 5/7/7
f 5/7/7 15/10/10 14/8/8
f 7/11/11 16/12/12 6/9/9
f 6/9/9 16/12/12 15/10/10
f 8/13/13 17/14/14 7/11/11
f 7/11/11 17/14/14 16/12/12
f 9/15/15 18/16/16 8/13/13
f 8/13/13 18/16/16 17/14/14
f 10/17/17 19/18/18 9/15/15
f 9/15/15 19/18/18 18/16/16
f 21/19/19 19/18/18 20/20/20
f 20/20/20 19/18/18 10/17/17
f 23/21/21 21/19/19 22/22/22
f 22/22/22 21/19/19 20/20/20
f 2/4/3 11/3/4 24/24/23
f 24/24/23 11/3/4 1/23/24
